<svg width="13" height="14" viewBox="0 0 13 14" fill="none" xmlns="http://www.w3.org/2000/svg">
<path d="M6.5 0.828125C7.61719 0.828125 8.68359 1.13281 9.64844 1.69141C10.6133 2.25 11.375 3.01172 11.9336 3.97656C12.4922 4.94141 12.7969 6.00781 12.7969 7.125C12.7969 8.26758 12.4922 9.30859 11.9336 10.2734C11.375 11.2383 10.6133 12.0254 9.64844 12.584C8.68359 13.1426 7.61719 13.4219 6.5 13.4219C5.35742 13.4219 4.31641 13.1426 3.35156 12.584C2.38672 12.0254 1.59961 11.2383 1.04102 10.2734C0.482422 9.30859 0.203125 8.26758 0.203125 7.125C0.203125 6.00781 0.482422 4.94141 1.04102 3.97656C1.59961 3.01172 2.38672 2.25 3.35156 1.69141C4.31641 1.13281 5.35742 0.828125 6.5 0.828125ZM9.4707 9.63867C9.52148 9.58789 9.54688 9.53711 9.54688 9.46094C9.54688 9.38477 9.52148 9.30859 9.49609 9.25781L8.86133 8.39453C8.81055 8.34375 8.73438 8.29297 8.63281 8.29297C8.53125 8.29297 8.45508 8.31836 8.4043 8.36914C8.27734 8.49609 8.125 8.62305 7.92188 8.75C7.51562 9.00391 7.13477 9.10547 6.72852 9.10547C6.11914 9.10547 5.66211 8.90234 5.33203 8.4707C5.00195 8.08984 4.84961 7.63281 4.84961 7.07422C4.84961 6.51562 5.00195 6.05859 5.35742 5.70312C5.6875 5.34766 6.14453 5.14453 6.72852 5.14453C7.08398 5.14453 7.46484 5.24609 7.8457 5.44922C8.02344 5.55078 8.17578 5.65234 8.30273 5.75391C8.35352 5.83008 8.42969 5.85547 8.53125 5.83008C8.63281 5.83008 8.70898 5.7793 8.75977 5.70312L9.31836 4.81445C9.34375 4.76367 9.36914 4.71289 9.36914 4.63672C9.36914 4.56055 9.34375 4.48438 9.29297 4.43359C9.14062 4.28125 8.91211 4.10352 8.60742 3.92578C8.02344 3.62109 7.38867 3.46875 6.67773 3.46875C5.9668 3.46875 5.35742 3.64648 4.79883 3.95117C4.24023 4.25586 3.80859 4.6875 3.50391 5.24609C3.17383 5.80469 3.02148 6.43945 3.02148 7.125C3.02148 7.81055 3.17383 8.41992 3.47852 8.97852C3.7832 9.53711 4.24023 9.99414 4.79883 10.2988C5.35742 10.6289 5.9668 10.7812 6.67773 10.7812C7.41406 10.7812 8.09961 10.6035 8.73438 10.2227C9.03906 10.0449 9.29297 9.8418 9.4707 9.63867Z" fill="white"/>
</svg>
