<svg width="28" height="29" viewBox="0 0 28 29" fill="none" xmlns="http://www.w3.org/2000/svg">
<path d="M27.724 16.4506C28.6035 9.32084 27.3014 4.81965 24.9525 2.78377L24.9538 2.78259C21.1627 -0.694155 8.35965 -1.20875 3.82416 2.93874C1.78736 4.96753 1.06994 7.94505 0.991317 11.6312C0.912695 15.3185 0.819332 22.2258 7.50341 24.0997H7.50955L7.50341 26.9613C7.50341 26.9613 7.45796 28.1206 8.22698 28.3536C9.10656 28.6281 9.50458 28.0898 12.2404 24.9431C16.8152 25.3252 20.3286 24.4498 20.7278 24.3221C21.6516 24.0239 26.8788 23.3579 27.724 16.4506ZM12.6912 22.9297C12.6912 22.9297 9.79573 26.4064 8.89526 27.309C8.60043 27.6024 8.27735 27.5752 8.28226 26.9932C8.28226 26.6111 8.30437 22.2424 8.30437 22.2424C2.63746 20.6785 2.9716 14.7968 3.03303 11.7199C3.09445 8.64182 3.6792 6.12092 5.40397 4.42336C9.38297 0.830689 20.6075 1.63392 23.4673 4.22226C26.9635 7.20688 25.7191 15.6391 25.7265 15.9265C25.0078 21.6923 20.7721 22.0579 19.9932 22.3075C19.6603 22.4139 16.5707 23.1793 12.6912 22.9297Z" fill="#421FA4"/>
<path d="M14.2931 5.09888C13.8201 5.09888 13.8201 5.80866 14.2931 5.81457C17.9625 5.84178 20.9845 8.30472 21.0177 12.8225C21.0177 13.2992 21.7425 13.2933 21.7363 12.8166H21.7351C21.6958 7.94864 18.3961 5.12609 14.2931 5.09888Z" fill="#421FA4"/>
<path d="M19.1199 12.0727C19.1089 12.5435 19.8324 12.566 19.8386 12.0892C19.8988 9.40509 18.1801 7.19412 14.9505 6.96108C14.4775 6.92795 14.4284 7.64365 14.9001 7.67677C17.701 7.88142 19.1764 9.72212 19.1199 12.0727Z" fill="#421FA4"/>
<path d="M18.3461 15.1269C17.7392 14.7886 17.1213 14.9991 16.8658 15.3315L16.3314 15.9975C16.0599 16.3359 15.5525 16.2909 15.5525 16.2909C11.85 15.3481 10.8598 11.617 10.8598 11.617C10.8598 11.617 10.8144 11.1119 11.1534 10.841L11.8217 10.3087C12.1558 10.0531 12.3671 9.43799 12.0269 8.8335C11.1178 7.25187 10.5072 6.70652 10.1964 6.28775C9.86967 5.89383 9.37828 5.8051 8.86724 6.07127H8.85618C7.79356 6.66985 6.6302 7.79012 7.00243 8.94351C7.63754 10.1596 8.80459 14.0362 12.5244 16.9652C14.2725 18.3505 17.039 19.77 18.2134 20.0977L18.2245 20.1143C19.3817 20.4857 20.507 19.3217 21.1077 18.2677V18.2594C21.3742 17.7495 21.2858 17.2669 20.8964 16.951C20.206 16.3028 19.1642 15.5871 18.3461 15.1269Z" fill="#421FA4"/>
<path d="M15.4562 9.60244C16.6368 9.66868 17.2093 10.2625 17.2707 11.4822C17.2928 11.9589 18.0115 11.9258 17.9893 11.449C17.9107 9.85677 17.0483 8.96955 15.4956 8.88674C15.0226 8.85953 14.9784 9.57523 15.4562 9.60244Z" fill="#421FA4"/>
</svg>
