<svg width="28" height="28" viewBox="0 0 28 28" fill="none" xmlns="http://www.w3.org/2000/svg">
<path d="M13.3212 0.0161927C5.92643 0.36829 0.0909128 6.52671 0.113346 13.9299C0.120176 16.1847 0.664527 18.3129 1.62479 20.1934L0.150444 27.3501C0.0706896 27.7372 0.41984 28.0761 0.804414 27.9851L7.81709 26.3236C9.61876 27.2211 11.6424 27.7395 13.7841 27.7721C21.3423 27.8876 27.6445 21.8862 27.88 14.3308C28.1326 6.232 21.4484 -0.37086 13.3212 0.0161927ZM21.6888 21.5756C19.6351 23.6293 16.9045 24.7604 14.0001 24.7604C12.2995 24.7604 10.6714 24.3788 9.16072 23.6263L8.18412 23.1398L3.88463 24.1585L4.78964 19.7652L4.30851 18.823C3.52429 17.2872 3.12666 15.6264 3.12666 13.8869C3.12666 10.9824 4.25768 8.2519 6.3114 6.19811C8.34677 4.16274 11.1219 3.0133 14.0003 3.0133C16.9047 3.01337 19.6352 4.14439 21.6889 6.19805C23.7426 8.25177 24.8736 10.9823 24.8737 13.8867C24.8736 16.7652 23.7242 19.5403 21.6888 21.5756Z" fill="#7AD06D"/>
<path d="M20.7397 16.8983L18.0498 16.126C17.6962 16.0245 17.3154 16.1248 17.0577 16.3873L16.3999 17.0575C16.1226 17.3401 15.7017 17.4309 15.3346 17.2824C14.0621 16.7674 11.3855 14.3875 10.7019 13.1971C10.5047 12.8537 10.5373 12.4244 10.7794 12.1111L11.3537 11.3681C11.5787 11.077 11.6262 10.6861 11.4774 10.3496L10.3457 7.79004C10.0746 7.17698 9.29123 6.99852 8.77942 7.43138C8.02869 8.06633 7.13793 9.03121 7.02965 10.1002C6.83874 11.9848 7.64699 14.3605 10.7034 17.2132C14.2344 20.5088 17.0621 20.9442 18.9031 20.4983C19.9473 20.2453 20.7818 19.2314 21.3085 18.4012C21.6676 17.8351 21.384 17.0834 20.7397 16.8983Z" fill="#7AD06D"/>
</svg>
