<svg width="38" height="50" viewBox="0 0 38 50" fill="none" xmlns="http://www.w3.org/2000/svg">
<path fill-rule="evenodd" clip-rule="evenodd" d="M33.8521 36.5112L28.2046 34.518C28.2863 34.2188 28.292 33.9004 28.2149 33.5901C28.081 33.0508 27.716 32.6054 27.2134 32.3683L24.1664 30.9311V29.9278C27.3234 29.3901 30.1952 28.5343 32.0952 27.8915C32.6888 27.6908 33.1804 27.2494 33.4442 26.6805C33.7082 26.1111 33.7271 25.4781 33.4979 24.8985C33.1692 24.0674 32.7775 22.5954 32.7775 20.3029V14.0404C32.7775 6.29851 26.479 0 18.7371 0C10.9953 0 4.69676 6.29851 4.69676 14.0404V20.3029C4.69676 22.5956 4.30496 24.0674 3.97635 24.8985C3.74706 25.4783 3.7661 26.1111 4.03006 26.6806C4.29373 27.2494 4.78543 27.6909 5.37898 27.8915C7.27907 28.5343 10.1507 29.3901 13.3079 29.9278V30.9311L10.261 32.3683C9.75836 32.6054 9.39322 33.0507 9.25944 33.5901C9.18239 33.9004 9.18805 34.2188 9.26979 34.518L3.62235 36.5112C1.45566 37.2759 0 39.3333 0 41.6311V49.2674C0 49.672 0.327928 49.9998 0.732419 49.9998C1.13691 49.9998 1.46484 49.672 1.46484 49.2674V41.6311C1.46484 39.9534 2.52782 38.4509 4.10985 37.8925L10.0632 35.7914L10.7951 36.7672L10.0028 37.9555C9.56276 38.6157 9.49596 39.4731 9.82838 40.1932L11.5105 43.838H9.29283V43.0048C9.29283 42.6002 8.96491 42.2724 8.56042 42.2724C8.15592 42.2724 7.828 42.6002 7.828 43.0048V43.838H4.64627C4.24178 43.838 3.91385 44.1658 3.91385 44.5704V49.2674C3.91385 49.672 4.24178 49.9998 4.64627 49.9998H12.4746C12.8791 49.9998 13.207 49.672 13.207 49.2674V47.5137L14.158 49.5743C14.2817 49.8423 14.5466 50 14.8235 50C14.9262 50 15.0306 49.9782 15.1299 49.9324C15.4972 49.763 15.6575 49.3278 15.488 48.9605L11.1583 39.5793C11.0377 39.3182 11.062 39.0075 11.2214 38.768L12.3011 37.1486C12.4734 36.8902 12.4639 36.5513 12.2777 36.3029L10.7452 34.2595C10.6518 34.1351 10.6649 34.0079 10.681 33.943C10.6971 33.8783 10.7451 33.7596 10.8858 33.6932L13.5558 32.4339L15.1495 38.4979C15.2523 38.8892 15.6531 39.1232 16.044 39.0202C16.4352 38.9173 16.669 38.5168 16.5662 38.1256L16.5049 37.8924C17.2204 38.1329 17.9747 38.2577 18.7371 38.2577C19.4988 38.2577 20.2534 38.1331 20.9693 37.8926L18.7371 46.386L17.3874 41.2504C17.2846 40.8593 16.8842 40.6252 16.4929 40.7282C16.1017 40.831 15.8679 41.2315 15.9706 41.6227L18.0287 49.4536C18.1133 49.7755 18.4043 49.9999 18.7371 49.9999C19.0699 49.9999 19.3609 49.7755 19.4454 49.4536L23.9185 32.4339L26.5885 33.6932C26.7291 33.7596 26.7771 33.8783 26.7933 33.943C26.8094 34.0079 26.8224 34.1351 26.729 34.2595L25.1966 36.3029C25.0103 36.5513 25.0009 36.8903 25.1731 37.1486L26.2527 38.768C26.4123 39.0074 26.4365 39.3182 26.316 39.5794L21.9862 48.9605C21.8167 49.3278 21.9771 49.763 22.3443 49.9324C22.4438 49.9783 22.5481 50 22.6508 50C22.9276 50 23.1926 49.8422 23.3162 49.5743L27.646 40.1932C27.9784 39.473 27.9116 38.6156 27.4716 37.9554L26.6794 36.7671L27.4112 35.7914L33.3646 37.8925C34.9467 38.4509 36.0096 39.9534 36.0096 41.6311V49.2674C36.0096 49.672 36.3376 49.9998 36.742 49.9998C37.1465 49.9998 37.4745 49.672 37.4745 49.2674V41.6311C37.4745 39.3333 36.0187 37.2759 33.8521 36.5112ZM5.37869 48.535V45.3028H7.828V45.3532C7.828 45.7578 8.15592 46.0857 8.56042 46.0857C8.96491 46.0857 9.29283 45.7578 9.29283 45.3532V45.3028H11.7421V48.535H5.37869ZM32.1152 26.0644C32.018 26.274 31.8444 26.43 31.6259 26.5039C30.0597 27.0338 27.8164 27.712 25.3058 28.224C27.9405 26.2307 29.6462 23.071 29.6462 19.52V15.9329C30.1973 16.0452 30.7532 16.1468 31.3126 16.236V20.3029C31.3126 22.3285 31.5894 24.056 32.1357 25.4372C32.216 25.6401 32.2087 25.8628 32.1152 26.0644ZM21.4442 36.0857C20.6221 36.548 19.6867 36.7926 18.7371 36.7926C17.7865 36.7926 16.8525 36.5478 16.03 36.0851L14.7726 31.3008V29.6834C16.002 30.1646 17.3392 30.4293 18.7371 30.4293C20.1351 30.4293 21.4722 30.1646 22.7017 29.6834V31.3008L21.4442 36.0857ZM18.7371 28.9644C13.5295 28.9644 9.29293 24.7277 9.29293 19.5201V16.3889C9.29293 15.9843 8.965 15.6565 8.56051 15.6565C8.15602 15.6565 7.82809 15.9843 7.82809 16.3889V19.5201C7.82809 23.0711 9.53375 26.2308 12.1685 28.2241C9.65787 27.712 7.41452 27.0338 5.84822 26.504C5.62986 26.4302 5.45613 26.2741 5.35906 26.0645C5.26551 25.8629 5.25828 25.64 5.33855 25.4372C5.88464 24.0562 6.1616 22.3288 6.1616 20.303V14.7927C6.27468 14.7737 6.3822 14.7537 6.41326 14.7448C6.59499 14.6928 10.9075 13.4377 14.685 10.3722C15.2375 9.92369 16.0331 9.91578 16.6196 10.3529C18.0624 11.4284 20.5065 12.9852 23.9563 14.295C24.3345 14.4388 24.7574 14.2483 24.901 13.8702C25.0445 13.492 24.8544 13.0691 24.4762 12.9254C21.1845 11.6757 18.8629 10.1979 17.4949 9.17828C16.3702 8.3403 14.8353 8.36344 13.7619 9.23483C10.6356 11.7719 7.01325 13.0187 6.18513 13.2825C6.57839 6.69978 12.0576 1.46484 18.7371 1.46484C25.6713 1.46484 31.3127 7.10622 31.3127 14.0404V14.7509C30.0292 14.5384 28.7649 14.2626 27.5445 13.9264C27.1549 13.8188 26.7514 14.048 26.6438 14.4379C26.5364 14.8279 26.7654 15.2312 27.1554 15.3386C27.4942 15.432 27.8367 15.5201 28.1813 15.6045V19.52C28.1813 24.7277 23.9447 28.9644 18.7371 28.9644ZM14.823 14.8737H13.2574C12.8529 14.8737 12.5249 15.2015 12.5249 15.6061C12.5249 16.0107 12.8529 16.3385 13.2574 16.3385H14.823C15.2275 16.3385 15.5554 16.0107 15.5554 15.6061C15.5554 15.2015 15.2275 14.8737 14.823 14.8737ZM22.6512 14.8737H24.2169C24.6214 14.8737 24.9493 15.2015 24.9493 15.6061C24.9493 16.0107 24.6214 16.3385 24.2169 16.3385H22.6512C22.2467 16.3385 21.9188 16.0107 21.9188 15.6061C21.9188 15.2015 22.2468 14.8737 22.6512 14.8737ZM32.828 44.2294H31.6033V43.0048C31.6033 42.6002 31.2753 42.2723 30.8708 42.2723C30.4664 42.2723 30.1384 42.6002 30.1384 43.0048V44.2294H28.9137C28.5092 44.2294 28.1813 44.5572 28.1813 44.9618C28.1813 45.3664 28.5092 45.6942 28.9137 45.6942H30.1384V46.9188C30.1384 47.3234 30.4664 47.6512 30.8708 47.6512C31.2753 47.6512 31.6033 47.3234 31.6033 46.9188V45.6942H32.828C33.2325 45.6942 33.5604 45.3664 33.5604 44.9618C33.5604 44.5572 33.2325 44.2294 32.828 44.2294ZM13.3078 17.9544C13.3078 17.5498 13.6357 17.222 14.0402 17.222C14.4447 17.222 14.7726 17.5498 14.7726 17.9544V18.7373C14.7726 19.1419 14.4447 19.4697 14.0402 19.4697C13.6357 19.4697 13.3078 19.1419 13.3078 18.7373V17.9544ZM23.4341 17.222C23.0296 17.222 22.7016 17.5498 22.7016 17.9544V18.7373C22.7016 19.1419 23.0296 19.4697 23.4341 19.4697C23.8386 19.4697 24.1665 19.1419 24.1665 18.7373V17.9544C24.1665 17.5499 23.8386 17.222 23.4341 17.222ZM15.2144 21.5247H22.2599C22.6644 21.5247 22.9923 21.8525 22.9923 22.2571C22.9923 24.3875 21.0834 26.1207 18.7371 26.1207C16.3908 26.1207 14.482 24.3875 14.482 22.2571C14.482 21.8525 14.8099 21.5247 15.2144 21.5247ZM16.0798 22.9895C16.4406 23.9551 17.4955 24.6559 18.7371 24.6559C19.9787 24.6559 21.0336 23.9552 21.3944 22.9895H16.0798Z" fill="#2FB991"/>
</svg>
