<svg width="13" height="12" viewBox="0 0 13 12" fill="none" xmlns="http://www.w3.org/2000/svg">
<path d="M12.0021 9.47032C12.0275 9.66526 11.9681 9.83475 11.8241 9.9788L10.1335 11.6567C10.0572 11.7414 9.95763 11.8135 9.83475 11.8728C9.71187 11.9321 9.59113 11.9703 9.47252 11.9872C9.46405 11.9872 9.43856 11.9894 9.39617 11.9936C9.35386 11.9978 9.29877 12 9.23098 12C9.06992 12 8.80931 11.9725 8.44914 11.9174C8.08897 11.8622 7.64831 11.7266 7.12717 11.5106C6.6059 11.2945 6.01482 10.9703 5.35383 10.5381C4.69283 10.106 3.98942 9.51272 3.24366 8.75846C2.65044 8.17371 2.15892 7.61439 1.76909 7.08052C1.37926 6.5466 1.0657 6.05296 0.828409 5.59957C0.591101 5.14618 0.413135 4.73516 0.294491 4.36652C0.175847 3.99787 0.0953388 3.68008 0.052966 3.41313C0.0105932 3.14618 -0.00635592 2.93644 0.00211864 2.78389C0.0105932 2.63135 0.0148305 2.54661 0.0148305 2.52966C0.0317796 2.41101 0.0699151 2.29025 0.129237 2.16737C0.188559 2.04449 0.260593 1.94491 0.345338 1.86864L2.03601 0.177966C2.15466 0.0593219 2.29025 0 2.44279 0C2.55296 0 2.65042 0.0317796 2.73516 0.0953388C2.81991 0.158898 2.89194 0.237288 2.95127 0.330508L4.31143 2.91101C4.3877 3.0466 4.40889 3.19491 4.37499 3.35593C4.34109 3.51694 4.26906 3.65254 4.15889 3.76271L3.53601 4.38559C3.51906 4.40253 3.50423 4.43008 3.49152 4.46821C3.47881 4.50635 3.47245 4.53813 3.47245 4.56355C3.50635 4.74152 3.58262 4.94491 3.70126 5.17372C3.80296 5.37711 3.95974 5.62499 4.1716 5.91736C4.38347 6.20974 4.68431 6.54658 5.07414 6.92793C5.4555 7.3178 5.79448 7.62073 6.09109 7.83687C6.38764 8.05289 6.6356 8.21185 6.83475 8.31355C7.03391 8.41524 7.18645 8.47668 7.29236 8.4978L7.45122 8.5296C7.46817 8.5296 7.49577 8.52323 7.53386 8.51054C7.572 8.4978 7.59954 8.483 7.61651 8.46603L8.34107 7.72874C8.49369 7.59317 8.67157 7.52537 8.87498 7.52537C9.01909 7.52537 9.13344 7.55077 9.21818 7.60164H9.23087L11.6842 9.05079C11.8623 9.16104 11.9682 9.30083 12.0021 9.47032Z" fill="#888888"/>
</svg>
