<svg width="50" height="50" viewBox="0 0 50 50" fill="none" xmlns="http://www.w3.org/2000/svg">
<path d="M47.5002 29.1675H45.0001V20.8346C44.9974 18.5344 43.1335 16.6706 40.8333 16.6679H27.5002C25.1999 16.6706 23.336 18.5344 23.3334 20.8346V29.1675H20.8332C19.4534 29.169 18.335 30.2874 18.3334 31.6676V40.0005C18.3399 42.1935 20.0474 44.0046 22.2363 44.1404L21.0381 48.3334H13.2492C12.8506 46.3952 11.1458 45.0029 9.16672 45.0002H7.50008V6.63482C7.50122 4.02832 9.51614 1.86584 12.1162 1.68122C14.7163 1.49659 17.017 3.35238 17.3866 5.93256L17.4011 6.03364C16.3258 6.47651 15.7013 7.60563 15.8981 8.75152L16.1255 10.0969L13.8973 13.9233C13.5979 14.4379 13.5956 15.073 13.8908 15.5899C14.1865 16.1068 14.7354 16.4268 15.3309 16.4295C15.4263 16.4295 15.5216 16.4215 15.6155 16.4055L23.6103 15.0543C24.2477 14.9464 24.7654 14.4795 24.9386 13.8566C25.1114 13.2336 24.9084 12.5669 24.4175 12.1461L21.0556 9.2642L20.8282 7.9188C20.6669 6.9808 19.9856 6.21636 19.0723 5.9482L19.0365 5.69682C18.544 2.24997 15.4709 -0.229881 11.998 0.0169213C8.52509 0.263724 5.83344 3.15326 5.83344 6.63482V45.0002H4.16679V44.1671C4.16679 43.7067 3.79372 43.3337 3.33328 43.3337C2.87323 43.3337 2.50015 43.7067 2.50015 44.1671V45.3535C0.98381 46.0161 0.00305176 47.5121 0 49.1669C0 49.6269 0.373077 50 0.833511 50H49.1669C49.6269 50 50 49.6269 50 49.1669C50 48.7065 49.6269 48.3334 49.1669 48.3334H47.2954L46.0972 44.1404C48.2861 44.0046 49.9935 42.1935 50 40.0005V31.6676C49.9985 30.2874 48.88 29.169 47.5002 29.1675ZM23.3326 13.411L15.3378 14.7625L17.5213 11.0128L20.0386 10.5875L23.3387 13.4095L23.3326 13.411ZM19.3241 9.01778L17.6807 9.29548L17.5415 8.47382C17.4656 8.02027 17.7708 7.59075 18.2243 7.51331C18.2705 7.50569 18.317 7.50187 18.364 7.50187C18.7702 7.50263 19.117 7.79559 19.1856 8.19612L19.3241 9.01778ZM27.5002 18.3345H40.8333C42.2134 18.336 43.3319 19.4544 43.3334 20.8346V29.3212C42.3374 29.6718 41.6698 30.6113 41.6668 31.6676V33.3555C40.9496 32.8043 40.0711 32.5037 39.1666 32.5007H36.1786L38.0894 30.5899C38.4048 30.263 38.4007 29.7431 38.0791 29.4219C37.7575 29.1003 37.2379 29.0958 36.911 29.4116L35.0002 31.3223V27.5009C35.0002 27.0405 34.6268 26.6674 34.1667 26.6674C33.7067 26.6674 33.3332 27.0405 33.3332 27.5009V31.3223L31.4224 29.4116C31.0955 29.0958 30.5759 29.1003 30.2544 29.4219C29.9328 29.7431 29.9286 30.263 30.2441 30.5899L32.1548 32.5007H29.1668C28.2623 32.5037 27.3838 32.8043 26.6666 33.3555V31.6676C26.6636 30.6113 25.996 29.6718 25 29.3212V20.8346C25.0015 19.4544 26.12 18.336 27.5002 18.3345ZM39.1666 34.1672C40.5468 34.1688 41.6653 35.2872 41.6668 36.6673V37.5004H26.6666V36.6673C26.6682 35.2872 27.7866 34.1688 29.1668 34.1672H39.1666ZM40.35 44.1671L42.7311 48.3334H25.6027L27.9835 44.1671H40.35ZM41.6668 42.5002H26.6666V39.167H41.6668V42.5002ZM20.0001 40.0005V31.6676C20.0005 31.2075 20.3735 30.8348 20.8332 30.8341H24.1669C24.6265 30.8348 24.9996 31.2075 25 31.6676V42.5002H22.5002C21.1201 42.4986 20.0016 41.3806 20.0001 40.0005ZM1.80969 48.3334C2.1637 47.3355 3.10745 46.668 4.16679 46.6668H9.16672C10.2257 46.668 11.1698 47.3355 11.5238 48.3334H1.80969ZM22.7715 48.3334L23.962 44.1671H26.0643L23.6835 48.3334H22.7715ZM44.6499 48.3334L42.2691 44.1671H44.3714L45.562 48.3334H44.6499ZM48.3334 40.0005C48.3318 41.3806 47.2134 42.4986 45.8332 42.5002H43.3334V31.6676C43.3338 31.2075 43.7069 30.8348 44.1666 30.8341H47.5002C47.9599 30.8348 48.3326 31.2075 48.3334 31.6676V40.0005Z" fill="#2FB991"/>
</svg>
