<svg width="44" height="50" viewBox="0 0 44 50" fill="none" xmlns="http://www.w3.org/2000/svg">
<path fill-rule="evenodd" clip-rule="evenodd" d="M37 45H41.1667C42.545 45 43.6667 46.1217 43.6667 47.5C43.6667 48.8783 42.545 50 41.1667 50H22C21.54 50 21.1667 49.6275 21.1667 49.1667C21.1667 48.7058 21.54 48.3333 22 48.3333H41.1667C41.6258 48.3333 42 47.96 42 47.5C42 47.04 41.6258 46.6667 41.1667 46.6667H37H22C21.54 46.6667 21.1667 46.2942 21.1667 45.8333C21.1667 45.3725 21.54 45 22 45H23.6667C23.6667 44.54 24.04 44.1667 24.5 44.1667C24.96 44.1667 25.3333 44.54 25.3333 45H27C27 44.54 27.3733 44.1667 27.8333 44.1667C28.2933 44.1667 28.6667 44.54 28.6667 45H30.3333C30.3333 44.54 30.7067 44.1667 31.1667 44.1667C31.6267 44.1667 32 44.54 32 45H33.6667C33.6667 44.54 34.04 44.1667 34.5 44.1667C34.96 44.1667 35.3333 44.54 35.3333 45V40C35.3333 33.7567 31.6092 28.1708 25.8467 25.77C25.8378 25.7665 25.8309 25.7608 25.8239 25.7552C25.8177 25.7502 25.8116 25.7452 25.8042 25.7417C25.7358 25.7083 25.6742 25.6667 25.6167 25.615C25.6088 25.6078 25.6009 25.6011 25.593 25.5945C25.5807 25.5843 25.5687 25.5742 25.5575 25.5625C25.4925 25.4925 25.4358 25.4142 25.3975 25.3217C25.3967 25.3208 25.3967 25.3192 25.3967 25.3192C25.3558 25.2192 25.3342 25.1108 25.3342 25.0008C25.3342 24.8908 25.3558 24.7825 25.3975 24.6817V24.68C25.4036 24.6655 25.4128 24.6538 25.4222 24.6422C25.4294 24.6331 25.4367 24.6239 25.4425 24.6133C25.48 24.5417 25.5192 24.4708 25.5775 24.4125C25.6483 24.3417 25.7325 24.2883 25.8217 24.2475C25.8294 24.2433 25.8348 24.2373 25.8418 24.233C25.8431 24.2322 25.8444 24.2315 25.8458 24.2308C25.8467 24.2308 25.8475 24.23 25.8475 24.23C25.8481 24.2294 25.8483 24.2292 25.8487 24.2292C25.8488 24.2292 25.849 24.2292 25.8492 24.2292C31.6108 21.8275 35.3333 16.2425 35.3333 10V5H22C21.54 5 21.1667 4.6275 21.1667 4.16667C21.1667 3.70583 21.54 3.33333 22 3.33333H37H41.1667C41.6258 3.33333 42 2.96 42 2.5C42 2.04 41.6258 1.66667 41.1667 1.66667H22C21.54 1.66667 21.1667 1.29417 21.1667 0.833333C21.1667 0.3725 21.54 0 22 0H41.1667C42.545 0 43.6667 1.12167 43.6667 2.5C43.6667 3.87833 42.545 5 41.1667 5H37V10C37 16.3258 33.5442 22.0333 28.0717 25C33.5442 27.9667 37 33.6742 37 40V45ZM12.8333 9.16664H17C17.46 9.16664 17.8333 9.53914 17.8333 9.99997C17.8333 10.4608 17.46 10.8333 17 10.8333H12.8333C12.3733 10.8333 12 10.4608 12 9.99997C12 9.53914 12.3733 9.16664 12.8333 9.16664ZM29.5 15.8333C29.9602 15.8333 30.3333 15.4602 30.3333 14.9999C30.3333 14.5397 29.9602 14.1666 29.5 14.1666C29.0397 14.1666 28.6666 14.5397 28.6666 14.9999C28.6666 15.4602 29.0397 15.8333 29.5 15.8333ZM28.6667 16.6667C28.6667 17.1269 28.2936 17.5 27.8334 17.5C27.3732 17.5 27.0001 17.1269 27.0001 16.6667C27.0001 16.2065 27.3732 15.8334 27.8334 15.8334C28.2936 15.8334 28.6667 16.2065 28.6667 16.6667ZM27 18.3334C27 18.7936 26.6269 19.1667 26.1667 19.1667C25.7064 19.1667 25.3333 18.7936 25.3333 18.3334C25.3333 17.8732 25.7064 17.5001 26.1667 17.5001C26.6269 17.5001 27 17.8732 27 18.3334ZM24.4999 28.3333C24.9602 28.3333 25.3333 27.9602 25.3333 27.4999C25.3333 27.0397 24.9602 26.6666 24.4999 26.6666C24.0397 26.6666 23.6666 27.0397 23.6666 27.4999C23.6666 27.9602 24.0397 28.3333 24.4999 28.3333ZM26.1667 44.1667C26.6269 44.1667 27 43.7936 27 43.3334C27 42.8732 26.6269 42.5001 26.1667 42.5001C25.7064 42.5001 25.3333 42.8732 25.3333 43.3334C25.3333 43.7936 25.7064 44.1667 26.1667 44.1667ZM29.5 44.1667C29.9602 44.1667 30.3333 43.7936 30.3333 43.3334C30.3333 42.8732 29.9602 42.5001 29.5 42.5001C29.0397 42.5001 28.6666 42.8732 28.6666 43.3334C28.6666 43.7936 29.0397 44.1667 29.5 44.1667ZM33.6666 43.3334C33.6666 43.7936 33.2935 44.1667 32.8333 44.1667C32.373 44.1667 31.9999 43.7936 31.9999 43.3334C31.9999 42.8732 32.373 42.5001 32.8333 42.5001C33.2935 42.5001 33.6666 42.8732 33.6666 43.3334ZM29.5 19.1667C29.9602 19.1667 30.3333 18.7936 30.3333 18.3334C30.3333 17.8732 29.9602 17.5001 29.5 17.5001C29.0397 17.5001 28.6666 17.8732 28.6666 18.3334C28.6666 18.7936 29.0397 19.1667 29.5 19.1667ZM27 21.6666C27 22.1269 26.6269 22.4999 26.1667 22.4999C25.7064 22.4999 25.3333 22.1269 25.3333 21.6666C25.3333 21.2064 25.7064 20.8333 26.1667 20.8333C26.6269 20.8333 27 21.2064 27 21.6666ZM24.4999 20.8333C24.9602 20.8333 25.3333 20.4603 25.3333 20C25.3333 19.5398 24.9602 19.1667 24.4999 19.1667C24.0397 19.1667 23.6666 19.5398 23.6666 20C23.6666 20.4603 24.0397 20.8333 24.4999 20.8333ZM28.6667 20C28.6667 20.4603 28.2936 20.8333 27.8334 20.8333C27.3732 20.8333 27.0001 20.4603 27.0001 20C27.0001 19.5398 27.3732 19.1667 27.8334 19.1667C28.2936 19.1667 28.6667 19.5398 28.6667 20ZM24.4999 30.8334C24.9602 30.8334 25.3333 30.4603 25.3333 30C25.3333 29.5398 24.9602 29.1667 24.4999 29.1667C24.0397 29.1667 23.6666 29.5398 23.6666 30C23.6666 30.4603 24.0397 30.8334 24.4999 30.8334ZM25.3333 32.5C25.3333 32.9603 24.9602 33.3334 24.4999 33.3334C24.0397 33.3334 23.6666 32.9603 23.6666 32.5C23.6666 32.0398 24.0397 31.6667 24.4999 31.6667C24.9602 31.6667 25.3333 32.0398 25.3333 32.5ZM24.4999 35.8333C24.9602 35.8333 25.3333 35.4602 25.3333 35C25.3333 34.5397 24.9602 34.1666 24.4999 34.1666C24.0397 34.1666 23.6666 34.5397 23.6666 35C23.6666 35.4602 24.0397 35.8333 24.4999 35.8333ZM25.3333 37.5C25.3333 37.9602 24.9602 38.3333 24.4999 38.3333C24.0397 38.3333 23.6666 37.9602 23.6666 37.5C23.6666 37.0397 24.0397 36.6666 24.4999 36.6666C24.9602 36.6666 25.3333 37.0397 25.3333 37.5ZM24.4999 40.8333C24.9602 40.8333 25.3333 40.4602 25.3333 39.9999C25.3333 39.5397 24.9602 39.1666 24.4999 39.1666C24.0397 39.1666 23.6666 39.5397 23.6666 39.9999C23.6666 40.4602 24.0397 40.8333 24.4999 40.8333ZM28.6667 41.6667C28.6667 42.1269 28.2936 42.5 27.8334 42.5C27.3732 42.5 27.0001 42.1269 27.0001 41.6667C27.0001 41.2065 27.3732 40.8334 27.8334 40.8334C28.2936 40.8334 28.6667 41.2065 28.6667 41.6667ZM31.1667 42.5C31.6269 42.5 32 42.1269 32 41.6667C32 41.2065 31.6269 40.8334 31.1667 40.8334C30.7065 40.8334 30.3334 41.2065 30.3334 41.6667C30.3334 42.1269 30.7065 42.5 31.1667 42.5ZM8.66665 15C8.20665 15 7.83331 15.3725 7.83331 15.8333C7.83331 16.2941 8.20665 16.6666 8.66665 16.6666H17C17.46 16.6666 17.8333 16.2941 17.8333 15.8333C17.8333 15.3725 17.46 15 17 15H8.66665ZM4.49998 20.8333H17C17.46 20.8333 17.8333 21.2058 17.8333 21.6666C17.8333 22.1274 17.46 22.4999 17 22.4999H4.49998C4.03998 22.4999 3.66665 22.1274 3.66665 21.6666C3.66665 21.2058 4.03998 20.8333 4.49998 20.8333ZM17 26.6666H1.16668C0.706677 26.6666 0.333344 27.0391 0.333344 27.4999C0.333344 27.9608 0.706677 28.3333 1.16668 28.3333H17C17.46 28.3333 17.8333 27.9608 17.8333 27.4999C17.8333 27.0391 17.46 26.6666 17 26.6666ZM6.16671 32.4999H17C17.46 32.4999 17.8334 32.8724 17.8334 33.3333C17.8334 33.7941 17.46 34.1666 17 34.1666H6.16671C5.70671 34.1666 5.33337 33.7941 5.33337 33.3333C5.33337 32.8724 5.70671 32.4999 6.16671 32.4999ZM17.0001 38.3334H11.1667C10.7067 38.3334 10.3334 38.7059 10.3334 39.1667C10.3334 39.6275 10.7067 40 11.1667 40H17.0001C17.4601 40 17.8334 39.6275 17.8334 39.1667C17.8334 38.7059 17.4601 38.3334 17.0001 38.3334Z" fill="#2FB991"/>
</svg>
