<svg width="70" height="70" viewBox="0 0 70 70" fill="none" xmlns="http://www.w3.org/2000/svg">
<path d="M68.883 63.2979H6.70213V1.11702C6.70213 0.500128 6.20215 0 5.58511 0C4.96806 0 4.46808 0.500128 4.46808 1.11702V10.5496H1.11702C0.499979 10.5496 0 11.0497 0 11.6666C0 12.2835 0.499979 12.7836 1.11702 12.7836H4.46808V21.0992H1.11702C0.499979 21.0992 0 21.5993 0 22.2162C0 22.8331 0.499979 23.3332 1.11702 23.3332H4.46808V31.6489H1.11702C0.499979 31.6489 0 32.1491 0 32.766C0 33.3829 0.499979 33.883 1.11702 33.883H4.46808V42.1985H1.11702C0.499979 42.1985 0 42.6987 0 43.3156C0 43.9324 0.499979 44.4326 1.11702 44.4326H4.46808V52.7481H1.11702C0.499979 52.7481 0 53.2483 0 53.8651C0 54.482 0.499979 54.9822 1.11702 54.9822H4.46808V64.4149C4.46808 65.0318 4.96806 65.5319 5.58511 65.5319H22.0921V68.883C22.0921 69.4999 22.5921 70 23.2092 70C23.8262 70 24.3262 69.4999 24.3262 68.883V65.5319H50.1419V68.883C50.1419 69.4999 50.6419 70 51.2589 70C51.876 70 52.3759 69.4999 52.3759 68.883V65.5319H68.883C69.5 65.5319 70 65.0318 70 64.4149C70 63.798 69.5 63.2979 68.883 63.2979Z" fill="#5FB7D2"/>
<path d="M11.5426 61.0638C12.1596 61.0638 12.6596 60.5637 12.6596 59.9468V33.883H22.0921V59.9468C22.0921 60.5637 22.5921 61.0638 23.2092 61.0638C23.8262 61.0638 24.3262 60.5637 24.3262 59.9468V44.4326H33.1383V59.9468C33.1383 60.5637 33.6383 61.0638 34.2553 61.0638C34.8724 61.0638 35.3723 60.5637 35.3723 59.9468V43.3155C35.3723 42.6987 34.8724 42.1985 34.2553 42.1985H24.3262V32.7659C24.3262 32.1491 23.8262 31.6489 23.2092 31.6489H11.5426C10.9255 31.6489 10.4255 32.1491 10.4255 32.7659V59.9468C10.4255 60.5637 10.9255 61.0638 11.5426 61.0638Z" fill="#5FB7D2"/>
<path d="M40.2128 61.0638C40.8298 61.0638 41.3298 60.5637 41.3298 59.9468V12.7836H50.1419V59.9468C50.1419 60.5637 50.6419 61.0638 51.2589 61.0638C51.876 61.0638 52.376 60.5637 52.376 59.9468V23.3334H61.8085V59.9468C61.8085 60.5637 62.3085 61.0638 62.9256 61.0638C63.5426 61.0638 64.0426 60.5637 64.0426 59.9468V22.2163C64.0426 21.5994 63.5426 21.0993 62.9256 21.0993H52.376V11.6666C52.376 11.0497 51.876 10.5496 51.2589 10.5496H40.2128C39.5957 10.5496 39.0958 11.0497 39.0958 11.6666V59.9468C39.0958 60.5637 39.5957 61.0638 40.2128 61.0638Z" fill="#5FB7D2"/>
</svg>
