<svg width="54" height="60" viewBox="0 0 54 60" fill="none" xmlns="http://www.w3.org/2000/svg">
<path d="M15.285 34.7292C15.8374 34.7292 16.3568 34.9443 16.7474 35.3349C16.9683 35.5559 17.2578 35.6665 17.5475 35.6663C17.837 35.6663 18.1266 35.5559 18.3475 35.3349C18.7895 34.8931 18.7895 34.1768 18.3475 33.7348C17.5295 32.9168 16.4419 32.4663 15.2852 32.4663C14.1284 32.4663 13.0408 32.9168 12.2228 33.7348C11.7808 34.1766 11.7808 34.893 12.2228 35.3349C12.6647 35.7769 13.3811 35.7768 13.8228 35.3349C14.2133 34.9443 14.7326 34.7292 15.285 34.7292Z" fill="#5FB7D2"/>
<path d="M35.6526 33.7348C35.2106 34.1767 35.2106 34.893 35.6526 35.335C36.0944 35.7768 36.8107 35.7768 37.2526 35.335C38.0589 34.5285 39.371 34.5287 40.1773 35.335C40.3982 35.5559 40.6877 35.6663 40.9774 35.6663C41.267 35.6663 41.5566 35.5559 41.7775 35.335C42.2194 34.8931 42.2194 34.1768 41.7775 33.7348C40.0891 32.0463 37.3414 32.0462 35.6526 33.7348Z" fill="#5FB7D2"/>
<path d="M38.7089 44.8964C32.2526 51.3527 21.7476 51.3527 15.2912 44.8964C14.8494 44.4546 14.1331 44.4546 13.6912 44.8964C13.2493 45.3383 13.2493 46.0547 13.6912 46.4966C17.3605 50.1658 22.1803 52.0005 27 52.0005C31.82 52.0005 36.6398 50.1658 40.309 46.4966C40.751 46.0547 40.751 45.3384 40.309 44.8964C39.8672 44.4546 39.1507 44.4546 38.7089 44.8964Z" fill="#5FB7D2"/>
<path d="M53.6965 35.9484C53.6965 32.8749 51.4747 30.3122 48.5533 29.7778V10.8498C48.5533 8.39431 47.3318 6.11786 45.2857 4.76027C43.3638 3.48528 40.9782 3.19592 38.8208 3.9561L31.7174 1.54501C26.259 -0.307864 20.5134 -0.497946 15.1019 0.995128C8.01742 2.94983 3.95584 7.08325 3.32889 12.9588C2.77406 13.6906 2.33322 14.5124 2.03367 15.3992L1.48266 17.03C1.18693 17.9056 1.51293 18.8257 2.29419 19.3196C3.0753 19.8135 4.0465 19.7136 4.71065 19.0708C4.93751 18.8512 5.18557 18.6662 5.44665 18.5115V29.7778C2.52528 30.3122 0.303421 32.8748 0.303421 35.9484C0.303421 39.1448 2.70645 41.7888 5.80051 42.1732C6.57752 46.4637 8.61935 50.4213 11.7414 53.5883C15.8176 57.7232 21.2363 60.0002 27 60.0002C27.0007 60.0002 27.0014 60.0002 27.0021 60.0002C32.7584 59.9996 38.1701 57.7577 42.2404 53.6875C45.4199 50.508 47.4837 46.51 48.2351 42.1687C51.3119 41.7683 53.6965 39.1324 53.6965 35.9484ZM44.0346 6.64595C45.4683 7.59707 46.2904 9.12932 46.2904 10.8498V25.6559C42.7786 25.1102 40.0821 22.066 40.0821 18.4036L39.9885 5.96341C41.3701 5.59923 42.8108 5.83401 44.0346 6.64595ZM3.95768 16.7742L4.1776 16.1234C4.75365 14.4185 6.03288 13.0343 7.68718 12.3261C9.34134 11.6178 11.2259 11.6472 12.8573 12.4071C16.2836 14.0028 20.4256 13.1401 22.9298 10.3093L23.2101 9.99232C23.6242 9.52433 23.5803 8.80926 23.1124 8.3953C22.6442 7.98133 21.9292 8.02503 21.5152 8.49303L21.2349 8.80997C19.3895 10.8961 16.3373 11.5316 13.8126 10.3558C11.5988 9.32463 9.04137 9.28461 6.79646 10.2459C6.59209 10.3335 6.39338 10.4312 6.19779 10.5334C7.51294 7.02725 10.696 4.55817 15.704 3.1764C20.6768 1.80425 25.9626 1.98118 30.9903 3.68767L37.7256 5.97388L37.8138 11.8202C34.8148 15.8977 30.441 18.658 25.4567 19.6071C20.3529 20.5789 15.1463 19.5506 10.7957 16.7115C8.66984 15.3245 5.9896 15.3838 3.95768 16.7742ZM2.5663 35.9484C2.5663 34.1291 3.78386 32.5898 5.44665 32.1001V38.2327C5.44665 38.7625 5.46575 39.2894 5.50294 39.8128C3.81158 39.3414 2.5663 37.7881 2.5663 35.9484ZM40.6404 52.0872C36.9975 55.7301 32.154 57.7366 27.002 57.7372C27.0011 57.7372 27.001 57.7372 27 57.7372C21.8473 57.7372 17.0002 55.6993 13.3529 51.9996C9.71373 48.308 7.70953 43.4188 7.70953 38.2326V17.978C8.35035 18.0258 8.98621 18.2332 9.55872 18.6067C14.4021 21.7672 20.1982 22.9121 25.8797 21.8301C30.4916 20.9519 34.6346 18.6815 37.8191 15.3331V18.4034C37.8191 23.3154 41.5269 27.3753 46.2903 27.9372V38.4466C46.2904 43.5994 44.284 48.4438 40.6404 52.0872ZM48.5096 39.8091C48.5376 39.3574 48.5533 38.9032 48.5533 38.4467V32.1001C50.2161 32.5898 51.4337 34.1291 51.4337 35.9484C51.4337 37.7834 50.1947 39.3336 48.5096 39.8091Z" fill="#5FB7D2"/>
</svg>
