<svg width="70" height="70" viewBox="0 0 70 70" fill="none" xmlns="http://www.w3.org/2000/svg">
<path d="M47.2064 30.2365C46.2897 30.2365 45.544 30.9823 45.544 31.899C45.544 32.8157 46.2897 33.5614 47.2064 33.5614C48.1231 33.5614 48.8689 32.8156 48.8689 31.899C48.8689 30.9823 48.1231 30.2365 47.2064 30.2365Z" fill="#5FB7D2"/>
<path d="M56.7396 30.2365C55.8229 30.2365 55.0771 30.9823 55.0771 31.899C55.0771 32.8157 55.8229 33.5614 56.7396 33.5614C57.6563 33.5614 58.402 32.8156 58.402 31.899C58.402 30.9823 57.6563 30.2365 56.7396 30.2365Z" fill="#5FB7D2"/>
<path d="M13.2605 30.2365C12.3438 30.2365 11.598 30.9823 11.598 31.899C11.598 32.8157 12.3438 33.5614 13.2605 33.5614C14.1772 33.5614 14.9228 32.8156 14.9228 31.899C14.9228 30.9823 14.1772 30.2365 13.2605 30.2365Z" fill="#5FB7D2"/>
<path d="M22.7938 30.2365C21.8771 30.2365 21.1313 30.9823 21.1313 31.899C21.1313 32.8157 21.8771 33.5614 22.7938 33.5614C23.7105 33.5614 24.4563 32.8156 24.4563 31.899C24.4562 30.9823 23.7105 30.2365 22.7938 30.2365Z" fill="#5FB7D2"/>
<path d="M69.4004 53.8322C69.2589 53.284 68.7003 52.9538 68.1512 53.0957C67.6029 53.2374 67.2731 53.7965 67.4148 54.3449C67.6688 55.3287 67.8279 56.3393 67.8904 57.3604H48.4761C48.2096 57.2469 47.927 57.1642 47.6333 57.1151C47.6334 57.0917 47.6342 57.0685 47.6342 57.045C47.6342 52.483 45.2636 48.4644 41.6899 46.1556C43.2586 44.8278 45.0443 43.8291 46.9627 43.1967C47.7141 45.2598 49.6965 46.7052 51.9731 46.7052C54.2466 46.7052 56.2269 45.2638 56.9806 43.205C60.7757 44.4598 64.026 47.1171 65.9965 50.7444C66.281 51.2683 66.9728 51.4374 67.4686 51.1064C67.9032 50.8163 68.0476 50.2241 67.7987 49.7655C66.9964 48.2889 66.0058 46.9554 64.8667 45.7862C65.8143 45.0787 66.6319 44.0007 67.3079 42.5628C69.99 36.8569 69.9836 25.9556 68.0968 21.0336C66.8399 17.7547 64.6479 14.9697 61.7584 12.9798C58.8669 10.9886 55.4832 9.93605 51.9732 9.93605C47.7843 9.93605 43.7418 11.4589 40.5902 14.2241C40.1646 14.5976 40.1222 15.2453 40.4957 15.6711C40.8691 16.0968 41.517 16.139 41.9427 15.7655C44.72 13.3287 48.2824 11.9868 51.9732 11.9868C55.0658 11.9868 58.0474 12.9142 60.5953 14.6688C63.1422 16.4227 65.0741 18.8774 66.182 21.7677C67.8916 26.2278 67.8907 36.5022 65.4518 41.6904C64.8329 43.0068 64.1123 43.9016 63.3045 44.3621C61.5488 42.9395 59.5383 41.8554 57.3751 41.1753C61.6047 39.1519 64.5335 34.8304 64.5335 29.8372V27.7628C64.5335 27.2635 64.174 26.8369 63.6818 26.7522C58.6062 25.8796 55.0934 20.7286 55.0593 20.6778C54.611 20.0072 53.5614 20.1141 53.2572 20.8606C53.2332 20.9194 50.7432 26.7375 40.4377 26.7375C39.8713 26.7375 39.4124 27.1966 39.4124 27.7628V29.8372C39.4124 34.8271 42.3374 39.1463 46.5626 41.1713C44.4161 41.8447 42.4111 42.9205 40.6402 44.3612C39.8329 43.9005 39.1127 43.006 38.4942 41.6903C36.0555 36.5021 36.0546 26.2277 37.7642 21.7677C38.1858 20.6678 38.734 19.6184 39.3934 18.6487C39.7118 18.1804 39.5903 17.5427 39.122 17.2243C38.6539 16.906 38.016 17.0272 37.6976 17.4956C36.9494 18.5959 36.3277 19.7863 35.8494 21.0335C33.9627 25.9553 33.9561 36.8566 36.6385 42.5625C36.9801 43.2893 37.3587 43.922 37.7711 44.4636C36.8735 44.243 35.9396 44.1156 34.9801 44.0937C34.8779 43.291 34.808 42.1552 35.0028 41.2703C35.1246 40.7173 34.7749 40.1703 34.2219 40.0485C33.6692 39.9268 33.1219 40.2764 33.0001 40.8294C32.8094 41.6956 32.8042 42.6568 32.8596 43.4681C31.2493 42.4367 30.9412 40.8778 30.9237 40.7818C30.8295 40.2269 30.3049 39.851 29.748 39.9417C29.1891 40.0327 28.8097 40.5596 28.9007 41.1185C28.9188 41.2298 29.2533 43.1289 30.9843 44.6275C30.6657 44.7226 30.3524 44.8293 30.0445 44.9476C28.1127 43.2122 25.8627 41.9348 23.4347 41.1725C25.5819 40.1442 27.3931 38.523 28.6559 36.5226C29.1795 36.7926 29.7644 36.9382 30.364 36.9382C32.4255 36.9382 34.1027 35.261 34.1027 33.1995C34.1027 32.401 33.8502 31.6607 33.422 31.0526C36.098 23.2823 34.9175 18.7307 33.4276 16.2678C31.9414 13.8112 29.4719 12.232 26.4742 11.8213C24.3424 11.5292 22.5987 12.0982 21.621 12.5445C20.1952 10.847 18.5723 9.93591 15.2064 9.93591C11.3434 9.93591 5.86641 11.9395 2.96944 16.3385C-0.244831 21.2193 0.919833 26.9584 2.59594 31.1042C2.18963 31.7024 1.95188 32.4237 1.95188 33.1997C1.95188 35.2612 3.62909 36.9384 5.69073 36.9384C6.29022 36.9384 6.87522 36.7926 7.39869 36.5228C8.65988 38.5207 10.4682 40.1403 12.6119 41.169C9.76562 42.061 7.17353 43.6615 5.04066 45.8837C4.68465 46.2546 4.6621 46.8519 4.99062 47.2478C5.37629 47.7124 6.10183 47.7394 6.52017 47.3037C8.35678 45.3901 10.578 43.9977 13.0163 43.1952C13.7672 45.2592 15.7498 46.7053 18.0271 46.7053C20.3027 46.7053 22.2844 45.2612 23.0364 43.1996C24.8427 43.7955 26.5334 44.7152 28.0344 45.9282C24.2575 48.1943 21.7241 52.3292 21.7241 57.0451C21.7241 57.0686 21.7249 57.0919 21.7251 57.1152C21.4313 57.1643 21.1487 57.247 20.8822 57.3605H2.10993C2.2614 54.9065 2.97669 52.5154 4.20137 50.3913C4.48423 49.9007 4.31594 49.2736 3.82541 48.9908C3.33502 48.708 2.70777 48.8762 2.42491 49.3669C0.857354 52.0853 0.0288696 55.1899 0.0288696 58.3453V58.3857C0.0288696 58.952 0.487954 59.4111 1.05422 59.4111H18.8732C18.7001 59.8413 18.6037 60.3105 18.6037 60.802C18.6037 62.8635 20.2809 64.5407 22.3425 64.5407C22.8825 64.5407 23.4077 64.4249 23.8883 64.2054C26.2117 67.6954 30.1811 70 34.6789 70C39.177 70 43.1463 67.6954 45.4698 64.2054C45.9503 64.4249 46.4756 64.5407 47.0156 64.5407C49.0771 64.5407 50.7544 62.8635 50.7544 60.802C50.7544 60.3105 50.6582 59.8413 50.485 59.4111H68.9457C69.5121 59.4111 69.971 58.952 69.971 58.3857V58.3453C69.9712 56.8172 69.7792 55.2987 69.4004 53.8322ZM30.3637 34.8878C30.0941 34.8878 29.8374 34.8235 29.6055 34.7056C30.0289 33.7022 30.325 32.6327 30.4749 31.5174C31.3538 31.5751 32.0517 32.3065 32.0517 33.1998C32.0519 34.1305 31.2945 34.8878 30.3637 34.8878ZM4.68192 17.4665C7.16136 13.7016 11.8754 11.9868 15.2061 11.9868C18.4588 11.9868 19.383 12.9217 20.5184 14.4618C20.8424 14.9015 21.4589 15.0065 21.9143 14.7053C21.9322 14.6933 23.7442 13.517 26.1956 13.8533C28.5681 14.1783 30.5133 15.4129 31.6728 17.3295C33.3992 20.1834 33.4066 24.4475 31.7082 29.7121C31.3569 29.5762 30.9804 29.4917 30.5875 29.4683V27.7628C30.5875 27.2635 30.228 26.8369 29.7359 26.7522C24.6602 25.8796 21.1474 20.7286 21.1133 20.6778C20.6662 20.0087 19.6186 20.106 19.3138 20.8541C19.3077 20.8688 18.6709 22.338 16.8014 23.7843C14.3045 25.7162 10.7396 26.7373 6.49187 26.7373C5.9256 26.7373 5.46652 27.1964 5.46652 27.7627V29.4682C5.04312 29.4933 4.63858 29.5892 4.2644 29.7442C2.40659 24.8381 2.54481 20.7117 4.68192 17.4665ZM5.69046 34.8878C4.75957 34.8878 4.00232 34.1305 4.00232 33.1998C4.00232 32.3065 4.70024 31.5751 5.57917 31.5174C5.72887 32.632 6.02472 33.7008 6.44771 34.7036C6.21448 34.822 5.95595 34.8878 5.69046 34.8878ZM7.54306 30.5357C7.54265 30.5307 7.54238 30.5258 7.54197 30.521C7.52734 30.2948 7.51736 30.0673 7.51736 29.8373V28.7701C15.2953 28.4916 18.9081 25.0705 20.3669 23.0651C21.7781 24.7417 24.6655 27.6142 28.537 28.5927V29.8373C28.537 30.0673 28.5268 30.2948 28.5123 30.521C28.5119 30.5259 28.5117 30.5309 28.5112 30.5358C28.1502 36.0061 23.5874 40.347 18.0272 40.347C12.4669 40.3469 7.90412 36.0061 7.54306 30.5357ZM18.0271 44.6546C16.6944 44.6546 15.526 43.8499 15.0173 42.6794C15.9981 42.4937 17.0043 42.3978 18.0271 42.3978C19.0471 42.3978 20.0535 42.494 21.0359 42.6812C20.5268 43.8507 19.3591 44.6546 18.0271 44.6546ZM51.973 44.6546C50.6408 44.6546 49.4727 43.8505 48.9636 42.6805C49.9454 42.494 50.9517 42.3976 51.973 42.3976C52.9938 42.3976 53.9995 42.497 54.98 42.685C54.4699 43.8525 53.3033 44.6546 51.973 44.6546ZM41.4631 29.8372V28.77C49.241 28.4915 52.8539 25.0704 54.3127 23.0649C55.7238 24.7416 58.6114 27.6141 62.4827 28.5925V29.8372C62.4827 35.6323 57.7681 40.3469 51.973 40.3469C46.1778 40.3469 41.4631 35.6323 41.4631 29.8372ZM22.3425 62.49C21.4117 62.49 20.6545 61.7327 20.6545 60.802C20.6545 60.0244 21.1837 59.3698 21.9002 59.1747C22.0879 60.305 22.4219 61.3865 22.8829 62.3984C22.7104 62.4575 22.5287 62.49 22.3425 62.49ZM34.6791 67.9493C28.6664 67.9493 23.7748 63.0576 23.7748 57.045C23.7748 51.0323 28.6664 46.1407 34.6791 46.1407C40.6918 46.1407 45.5834 51.0323 45.5834 57.045C45.5834 63.0576 40.6918 67.9493 34.6791 67.9493ZM47.0157 62.49C46.8296 62.49 46.648 62.4575 46.4754 62.3984C46.9364 61.3865 47.2704 60.3049 47.4581 59.1747C48.1746 59.3698 48.7039 60.0245 48.7039 60.802C48.7039 61.7327 47.9466 62.49 47.0157 62.49Z" fill="#5FB7D2"/>
<path d="M29.9125 56.6085C28.9958 56.6085 28.25 57.3543 28.25 58.271C28.25 59.1877 28.9958 59.9333 29.9125 59.9333C30.8292 59.9333 31.575 59.1875 31.575 58.271C31.575 57.3541 30.8293 56.6085 29.9125 56.6085Z" fill="#5FB7D2"/>
<path d="M39.4458 56.6085C38.5291 56.6085 37.7834 57.3543 37.7834 58.271C37.7834 59.1877 38.5291 59.9333 39.4458 59.9333C40.3625 59.9333 41.1083 59.1875 41.1083 58.271C41.1083 57.3541 40.3625 56.6085 39.4458 56.6085Z" fill="#5FB7D2"/>
<path d="M32.324 9.88972C33.9205 11.2649 35.5757 12.0766 35.6454 12.1105C35.926 12.2469 36.2616 12.2469 36.5421 12.1105C36.6119 12.0766 38.267 11.2649 39.8636 9.88972C42.1206 7.94551 43.1614 5.80622 42.8737 3.70288C42.5291 1.18434 40.7412 0.147091 39.1828 0.0161195C38.0002 -0.0836815 36.8805 0.289273 36.0938 0.972842C35.3073 0.289273 34.1872 -0.0834081 33.0049 0.0161195C31.4465 0.147091 29.6586 1.18434 29.3141 3.70288C29.0262 5.80622 30.0671 7.94551 32.324 9.88972ZM31.3456 3.98082C31.5585 2.42515 32.5841 2.10934 33.1765 2.05958C33.243 2.05397 33.3091 2.05124 33.3749 2.05124C34.189 2.05124 34.9318 2.46904 35.1152 3.05431C35.2492 3.48195 35.6454 3.77301 36.0937 3.77301C36.5419 3.77301 36.9382 3.48195 37.0722 3.05431C37.2703 2.42173 38.1223 1.98439 39.0109 2.05958C39.6033 2.10934 40.629 2.42515 40.8419 3.98082C41.2026 6.61748 37.8707 9.04783 36.0938 10.0316C34.3162 9.04701 30.985 6.61707 31.3456 3.98082Z" fill="#5FB7D2"/>
</svg>
